PathFileType	4	(X/Y/Z)	 s08c0301.trc
DataRate	CameraRate	NumFrames	NumMarkers	Units	OrigDataRate	OrigDataStartFrame	OrigNumFrames
200	200	5	50	mm	200	1001	2000
Frame#	Time	racr			lacr			c7			jug			rlel			rdr			llel			ldr			s2			lic			ric			lasi			rasi			rpsi			lpsi			rgt			lgt			rth1			rth2			rth3			rth4			rlfc			rmfc			rsh1			rsh2			rsh3			rsh4			rlmal			rmmal			rcal			rtoe			rmt5			lth1			lth2			lth4			lth3			llfc			lmfc			llmal			lmmal			lcal			lmt5			lsh1			lsh2			lsh3			lsh4			ltoe			SBIKE			LBIKE			RBIKE			
		X1	Y1	Z1	X2	Y2	Z2	X3	Y3	Z3	X4	Y4	Z4	X5	Y5	Z5	X6	Y6	Z6	X7	Y7	Z7	X8	Y8	Z8	X9	Y9	Z9	X10	Y10	Z10	X11	Y11	Z11	X12	Y12	Z12	X13	Y13	Z13	X14	Y14	Z14	X15	Y15	Z15	X16	Y16	Z16	X17	Y17	Z17	X18	Y18	Z18	X19	Y19	Z19	X20	Y20	Z20	X21	Y21	Z21	X22	Y22	Z22	X23	Y23	Z23	X24	Y24	Z24	X25	Y25	Z25	X26	Y26	Z26	X27	Y27	Z27	X28	Y28	Z28	X29	Y29	Z29	X30	Y30	Z30	X31	Y31	Z31	X32	Y32	Z32	X33	Y33	Z33	X34	Y34	Z34	X35	Y35	Z35	X36	Y36	Z36	X37	Y37	Z37	X38	Y38	Z38	X39	Y39	Z39	X40	Y40	Z40	X41	Y41	Z41	X42	Y42	Z42	X43	Y43	Z43	X44	Y44	Z44	X45	Y45	Z45	X46	Y46	Z46	X47	Y47	Z47	X48	Y48	Z48	X49	Y49	Z49	X50	Y50	Z50	
1001	5.0050	882.997511	1390.899018	-142.963571	863.640134	1322.218898	-453.921716	860.254774	1402.248730	-298.213937	816.768674	1251.163889	-263.229328	784.848907	1176.659107	29.079860	812.404347	892.074962	-30.219658	666.805854	1106.044553	-526.728412	814.582767	916.415532	-416.290158	291.563104	1280.206699	-143.898146	398.574338	1251.323831	-327.464540	493.973342	1257.783675	-30.678541	435.460368	1196.082896	-299.445092	490.837394	1187.507594	-66.456170	345.568209	1311.404623	-104.112502	316.500068	1321.574253	-195.922750	397.572894	1143.941642	22.932799	336.030109	1167.039363	-350.177470	453.857678	975.037657	8.067164	491.280978	895.336443	-5.833880	484.925863	809.318525	-13.222666	523.842759	903.489615	-19.968122	487.574436	690.809019	-29.441168	461.616755	693.417772	-138.130532	377.167998	611.152964	1.871647	334.665737	535.868181	-20.784843	261.601225	490.210923	-27.299712	357.032588	521.313510	-53.526599	168.436144	409.615415	-39.345296	195.765880	413.396150	-125.622388	117.521725	466.360079	-90.607842	209.580705	183.165943	-101.644277	149.431391	252.722380	-32.943711	410.839071	1058.565879	-373.653741	481.880415	1009.558835	-386.586926	510.789088	1031.898430	-378.802311	519.078498	929.258694	-396.742504	582.807354	810.157890	-389.696948	596.353569	778.684408	-283.612362	364.681839	451.543503	-382.034133	399.328365	461.746266	-298.615766	290.853010	439.383545	-342.934324	481.506160	346.043227	-412.977549	519.388169	699.815918	-410.708765	493.908530	618.929794	-394.158038	430.869137	557.554831	-391.455725	517.890090	609.169877	-364.364308	568.720516	360.945057	-347.005493	-133.467073	944.014528	-222.256040	26.475949	84.386436	-426.079971	17.575551	80.589400	-27.777431	
1002	5.0100	881.914830	1392.105338	-142.189732	865.280612	1319.420290	-452.319868	860.356282	1401.834055	-297.555096	816.836714	1251.042695	-261.378546	785.092391	1176.828377	28.818895	812.308432	891.880815	-30.115617	666.775415	1105.131684	-526.277390	814.584279	916.116027	-416.020540	291.151467	1278.746112	-144.192511	399.402754	1247.961105	-328.469091	493.769819	1258.392467	-31.660542	435.212072	1193.693515	-300.277107	491.450850	1188.195647	-67.560490	345.108402	1310.474935	-105.214442	315.559596	1319.493429	-195.441617	400.013303	1144.040930	22.945675	334.436566	1163.644901	-350.116421	459.215166	976.259307	6.619121	497.710211	897.498225	-7.191402	492.312583	811.399917	-14.428223	529.661623	906.058764	-22.677817	495.841928	692.916868	-30.819777	467.428137	696.385207	-140.368540	384.390188	615.072014	0.715396	339.936653	540.883946	-21.866994	265.732098	497.006864	-27.945906	361.627337	526.033062	-54.945338	170.438419	418.937551	-39.562142	198.726220	421.308739	-126.119617	120.755325	476.954489	-90.556440	206.464013	191.797103	-101.810161	147.877614	262.697272	-33.052825	408.913733	1054.255327	-373.133753	479.316694	1004.290538	-385.734883	508.386389	1026.264260	-378.239491	515.376539	923.415546	-395.546291	577.751782	803.687331	-388.164604	590.688849	771.514032	-282.667003	365.635198	440.622269	-382.191985	400.454132	450.721067	-298.845763	292.345257	427.873184	-342.841242	483.078051	335.051853	-412.900457	514.926611	693.170278	-410.073394	491.171077	611.391929	-394.124652	429.239979	548.953205	-391.257230	515.770155	601.362114	-364.931962	570.250266	350.097240	-346.895043	-133.457484	943.958917	-222.140528	26.498097	84.382451	-426.077437	17.589915	80.567839	-27.781389	
1003	5.0150	880.996789	1393.272565	-141.159959	867.316845	1317.153590	-451.571972	860.593523	1401.403215	-296.674292	817.862798	1250.646163	-259.441726	785.172853	1176.977110	28.805616	812.088074	891.628928	-29.981260	667.137062	1104.366396	-526.037233	814.565293	915.728203	-415.813917	290.816631	1276.833600	-144.597877	400.112146	1244.615102	-329.723378	493.410834	1258.752747	-32.726613	435.079106	1191.203407	-301.155690	491.961684	1188.992727	-68.580045	344.445680	1309.254300	-106.373685	316.924858	1315.786044	-200.421603	402.145491	1144.114604	22.712947	333.175086	1159.735532	-350.039759	463.873360	977.608160	5.927291	503.153651	899.214592	-9.672162	499.396691	813.213415	-16.093901	534.506269	908.463729	-25.116521	503.824398	694.926468	-32.452006	474.783424	698.301418	-141.471897	391.209572	619.266444	-0.616533	344.966305	546.203579	-23.553873	269.566515	504.099411	-28.778432	365.894856	531.024785	-56.448189	172.292352	428.657005	-39.936654	200.646366	429.921947	-126.877657	123.448692	487.534558	-90.772154	204.188786	200.961896	-101.921610	146.968922	272.935779	-33.113185	407.181769	1049.540058	-372.784969	476.949580	998.426055	-384.900641	506.318089	1020.108005	-377.531905	511.675315	917.036034	-394.240682	572.625926	796.676120	-386.415819	586.104628	764.330075	-280.787211	366.186630	429.894862	-382.388282	400.931436	439.981610	-298.947964	293.215997	416.866704	-343.163743	484.052521	323.975202	-412.672453	510.844183	685.494420	-409.230739	488.311208	603.273110	-393.909090	427.310831	540.012551	-391.062518	513.500898	593.391146	-365.270275	571.237466	338.898400	-346.605086	-133.464211	943.925002	-222.078665	26.494923	84.340104	-426.063625	17.603515	80.534576	-27.755863	
1004	5.0200	880.116531	1394.331810	-139.970358	868.748798	1313.926555	-447.937299	860.890054	1400.860131	-295.708755	817.097016	1250.744722	-257.153086	785.059135	1177.021497	28.980216	812.062926	891.290659	-29.474805	667.886478	1103.755302	-526.068826	814.621243	915.284973	-415.350606	289.942824	1274.965285	-144.115045	401.001905	1241.161277	-331.055099	492.920683	1258.857610	-33.893115	435.069237	1188.619640	-302.075758	492.333183	1189.085829	-69.746573	343.713514	1307.881886	-107.797663	315.647428	1313.881428	-200.283282	403.855315	1144.153459	22.346497	332.263300	1155.436758	-350.135879	467.676199	978.787399	5.298528	507.918444	901.231126	-10.939839	505.378766	815.042026	-17.278694	539.016226	910.740022	-26.671921	511.399665	696.863210	-35.034861	481.557320	700.558126	-142.294104	397.732221	623.661469	-2.023096	350.549271	551.891531	-24.259311	273.135830	511.596086	-29.822874	370.293857	536.277444	-57.998050	174.108668	438.605465	-40.331159	202.116959	439.543431	-127.664658	125.892588	498.142223	-91.146264	202.960087	210.533234	-102.101817	146.806737	283.320008	-33.145173	405.673933	1044.353547	-372.442074	474.621898	992.012644	-384.101884	504.231153	1013.260855	-377.033004	508.014187	909.997930	-392.748675	567.500723	789.292084	-384.535142	580.446921	756.548386	-279.338281	366.336468	419.226221	-382.885990	400.903557	429.214966	-299.451610	293.660878	406.395614	-344.289887	484.561038	312.750119	-412.513074	507.198020	676.812581	-408.123848	485.612452	594.544900	-393.482911	425.718783	530.419583	-391.365043	511.084210	584.277325	-364.464694	571.640474	327.694519	-346.377201	-133.489593	943.907248	-222.158967	26.486063	84.293496	-426.045754	17.574478	80.513859	-27.742608	
1005	5.0250	879.295464	1395.189909	-138.478064	871.006636	1311.439918	-445.655696	861.470930	1400.297045	-294.392699	817.564931	1250.460273	-254.904097	784.792693	1176.869683	29.256002	811.871384	890.845710	-29.273560	668.987301	1103.247004	-526.356672	814.382999	914.999542	-415.370815	290.450193	1272.868914	-146.105125	402.117311	1237.635868	-332.648570	492.254795	1258.746981	-34.926722	435.190230	1185.949282	-303.032224	492.185738	1188.809360	-70.796923	342.874308	1306.422237	-109.470813	315.136751	1311.520610	-201.779046	404.902935	1144.036023	21.788501	331.682276	1150.730650	-350.349589	471.002834	979.898281	5.257349	512.311701	902.990523	-11.970275	510.901010	816.753163	-18.173077	543.052688	913.387545	-28.003793	518.666027	698.952084	-36.905945	486.952998	703.431742	-144.657641	404.009348	628.407656	-3.567377	354.828676	557.677565	-25.805924	276.679738	519.305565	-30.933691	374.387252	541.526993	-59.504577	175.949643	448.797772	-40.850253	195.820436	447.060641	-132.171194	128.246486	508.872218	-91.632320	202.736153	220.621261	-102.124559	147.224319	293.912262	-33.271015	404.336536	1038.729779	-372.196251	472.347225	985.080276	-383.372662	502.410205	1005.832767	-376.449631	504.400051	902.388259	-391.095989	562.165089	781.548231	-382.698200	574.585223	748.687348	-277.697339	366.004383	408.800957	-384.087908	400.987104	419.940756	-300.474786	293.229967	395.758635	-345.186884	484.382473	301.423868	-412.431267	503.507121	667.715274	-406.939255	483.197111	585.125714	-392.562599	424.436923	519.934738	-391.249224	508.469251	575.373552	-363.304128	571.574063	316.113192	-345.970609	-133.508219	943.871680	-222.105060	26.446675	84.244865	-426.042565	17.532856	80.509540	-27.744029	
